<svg xmlns="http://www.w3.org/2000/svg" width="22" height="21.062" viewBox="0 0 22 21.062"><g transform="translate(0 0.53)"><rect width="4" height="4" transform="translate(9 14.966)" fill="none" stroke="#fcee21" stroke-miterlimit="10" stroke-width="1.5"/><path d="M526.375,284.188a6.188,6.188,0,1,0-10.175,4.727,4.7,4.7,0,0,1,1.667,3.591v.189h4.641v-.185a4.914,4.914,0,0,1,1.758-3.674A6.164,6.164,0,0,0,526.375,284.188Z" transform="translate(-509.187 -277.304)" fill="none" stroke="#fcee21" stroke-miterlimit="10" stroke-width="1.5"/><line x2="2" transform="translate(20 7.966)" fill="none" stroke="#fff" stroke-miterlimit="10" stroke-width="1.5"/><line x2="2" transform="translate(0 7.966)" fill="none" stroke="#fff" stroke-miterlimit="10" stroke-width="1.5"/><line x2="1.641" y2="1.641" transform="translate(17.016 13.673)" fill="none" stroke="#fff" stroke-miterlimit="10" stroke-width="1.5"/><line x2="1.641" y2="1.641" transform="translate(3.344)" fill="none" stroke="#fff" stroke-miterlimit="10" stroke-width="1.5"/><line x1="1.641" y2="1.641" transform="translate(3.344 13.673)" fill="none" stroke="#fff" stroke-miterlimit="10" stroke-width="1.5"/><line x1="1.641" y2="1.641" transform="translate(17.016)" fill="none" stroke="#fff" stroke-miterlimit="10" stroke-width="1.5"/><path d="M523.094,301A1.547,1.547,0,0,1,520,301Z" transform="translate(-510.547 -282.515)" fill="#fcee21" stroke="#fcee21" stroke-width="1"/></g></svg>